<?xml version="1.0" encoding="utf-8"?>
<!-- Generator: Adobe Illustrator 25.0.0, SVG Export Plug-In . SVG Version: 6.00 Build 0)  -->
<svg version="1.1" id="Layer_1" xmlns="http://www.w3.org/2000/svg" xmlns:xlink="http://www.w3.org/1999/xlink" x="0px" y="0px"
	 viewBox="0 0 110.1 122.9" style="enable-background:new 0 0 110.1 122.9;" xml:space="preserve">
<style type="text/css">
	.st0{fill-rule:evenodd;clip-rule:evenodd;fill:#560B22;}
	.st1{fill-rule:evenodd;clip-rule:evenodd;fill:#FC9FBC;}
	.st2{fill-rule:evenodd;clip-rule:evenodd;fill:#FAB2B5;}
</style>
<path class="st0" d="M63.8,18.6h3.9v6.6h16.4c3.7,0,6.7,3,6.7,6.7V37c-2.6,2.1-4.9,3.2-7.1,3.3c-2.7,0.1-5.2-1.7-7.7-5.4l0,0
	c-0.1-0.2-0.3-0.4-0.5-0.5c-0.9-0.7-2.1-0.5-2.8,0.4c-2.4,3.3-4.9,5.2-7.5,5.3c-2.6,0.1-5.5-1.5-8.8-5c0,0-0.1-0.1-0.1-0.1
	c-0.8-0.7-2.1-0.7-2.8,0.1c-3.1,3.4-5.9,5.1-8.6,5.1c-2.6,0-5.2-1.6-7.9-5l0,0c-0.1-0.2-0.3-0.3-0.4-0.4c-0.9-0.6-2.2-0.4-2.8,0.5
	c-2,2.8-4.2,4.4-6.7,4.8c-1.7,0.3-3.5,0-5.4-0.8c-4-1.6-2.5-2.6-2.8-7.5c-0.2-3.7,3-6.7,6.7-6.7h16.3v-6.5h3.9v6.5H53V10.9h3.9v14.3
	h6.9L63.8,18.6L63.8,18.6z"/>
<polygon class="st1" points="0,114.9 110.1,114.9 110.1,122.9 0,122.9 0,114.9 "/>
<path class="st1" d="M90.9,41.9v0.2h-0.3C90.6,42.1,90.8,42,90.9,41.9L90.9,41.9z"/>
<path class="st2" d="M89.3,42.8v20.5H20.8V43.3c2.5,1,4.9,1.3,7.2,0.8c2.8-0.5,5.4-2,7.6-4.5c3,3.2,6.1,4.7,9.4,4.6
	c3.3,0,6.7-1.7,10-4.9c3.6,3.5,7.1,5,10.5,4.8c3.2-0.2,6.1-1.9,8.8-4.9c2.8,3.5,6,5.1,9.5,5C85.7,44.2,87.5,43.7,89.3,42.8
	L89.3,42.8z"/>
<path class="st0" d="M15.2,66.9H95c5.1,0,9.2,4.1,9.2,9.2v7c-3.5,2.9-6.7,4.4-9.7,4.5c-3.7,0.1-7.2-2.3-10.5-7.4l0,0
	c-0.2-0.3-0.4-0.5-0.7-0.7c-1.2-0.9-2.9-0.6-3.8,0.6c-3.3,4.6-6.8,7.1-10.3,7.3c-3.6,0.2-7.6-2-12-6.9c-0.1-0.1-0.1-0.1-0.2-0.2
	c-1.1-1-2.8-0.9-3.9,0.2c-4.2,4.6-8.1,7-11.7,7c-3.5,0-7.1-2.2-10.8-6.8l0,0c-0.2-0.2-0.4-0.4-0.6-0.6c-1.2-0.9-2.9-0.6-3.8,0.7
	c-2.7,3.8-5.8,6-9.1,6.6c-2.3,0.4-4.8,0-7.4-1.1C4.4,84.2,6.4,82.9,6,76.2C5.7,71.1,10.1,66.9,15.2,66.9L15.2,66.9z"/>
<path class="st1" d="M104.2,89.8v0.3h-0.5C103.8,90.1,104,90,104.2,89.8L104.2,89.8z"/>
<path class="st2" d="M102,91.1v21.5H8.3V91.7c3.4,1.3,6.7,1.7,9.9,1.2c3.9-0.7,7.4-2.8,10.5-6.1c4.1,4.3,8.4,6.4,12.9,6.3
	c4.6-0.1,9.2-2.3,13.7-6.7c4.9,4.7,9.7,6.8,14.3,6.6c4.4-0.2,8.4-2.5,12.1-6.7c3.9,4.8,8.2,7,13,6.9C97.1,93,99.5,92.3,102,91.1
	L102,91.1z"/>
<path class="st1" d="M44.1,7.7C52.4,19.6,35.9,21.8,44.1,7.7L44.1,7.7z"/>
<path class="st1" d="M55,0C63.2,11.9,46.8,14.1,55,0L55,0z"/>
<path class="st1" d="M65.8,7.7C74,19.6,57.6,21.8,65.8,7.7L65.8,7.7z"/>
</svg>
